<svg xmlns="http://www.w3.org/2000/svg" width="2200" height="1600" viewBox="0 0 2200 1600">
<rect width="2200" height="1600" fill="#02030A"/>
<text x="90" y="170" fill="#F7F2FF" font-family="Inter, Helvetica, Arial" font-size="82" font-weight="700">EI Colour Brand Kit</text>
<text x="94" y="250" fill="#CBB9FB" font-family="Inter, Helvetica, Arial" font-size="36">Neon orbital palette extracted from the blue–magenta light system.</text>
<rect x="90" y="720" width="420" height="250" rx="36" fill="#1336E7"/><text x="122" y="875" fill="#F7F2FF" font-size="34" font-weight="700" font-family="Inter, Helvetica, Arial">Electric Cobalt</text><text x="122" y="925" fill="#F7F2FF" font-size="30" font-family="Inter, Helvetica, Arial">#1336E7</text><rect x="538" y="720" width="420" height="250" rx="36" fill="#0B0E96"/><text x="570" y="875" fill="#F7F2FF" font-size="34" font-weight="700" font-family="Inter, Helvetica, Arial">Orbit Blue</text><text x="570" y="925" fill="#F7F2FF" font-size="30" font-family="Inter, Helvetica, Arial">#0B0E96</text><rect x="986" y="720" width="420" height="250" rx="36" fill="#070454"/><text x="1018" y="875" fill="#F7F2FF" font-size="34" font-weight="700" font-family="Inter, Helvetica, Arial">Deep Nebula</text><text x="1018" y="925" fill="#F7F2FF" font-size="30" font-family="Inter, Helvetica, Arial">#070454</text><rect x="90" y="998" width="420" height="250" rx="36" fill="#CBB9FB"/><text x="122" y="1153" fill="#02030A" font-size="34" font-weight="700" font-family="Inter, Helvetica, Arial">Stellar Lilac</text><text x="122" y="1203" fill="#02030A" font-size="30" font-family="Inter, Helvetica, Arial">#CBB9FB</text><rect x="538" y="998" width="420" height="250" rx="36" fill="#690EB9"/><text x="570" y="1153" fill="#F7F2FF" font-size="34" font-weight="700" font-family="Inter, Helvetica, Arial">Ion Violet</text><text x="570" y="1203" fill="#F7F2FF" font-size="30" font-family="Inter, Helvetica, Arial">#690EB9</text><rect x="986" y="998" width="420" height="250" rx="36" fill="#45045D"/><text x="1018" y="1153" fill="#F7F2FF" font-size="34" font-weight="700" font-family="Inter, Helvetica, Arial">Void Plum</text><text x="1018" y="1203" fill="#F7F2FF" font-size="30" font-family="Inter, Helvetica, Arial">#45045D</text><rect x="90" y="1276" width="420" height="250" rx="36" fill="#C23BE5"/><text x="122" y="1431" fill="#F7F2FF" font-size="34" font-weight="700" font-family="Inter, Helvetica, Arial">Neon Magenta</text><text x="122" y="1481" fill="#F7F2FF" font-size="30" font-family="Inter, Helvetica, Arial">#C23BE5</text><rect x="538" y="1276" width="420" height="250" rx="36" fill="#02030A"/><text x="570" y="1431" fill="#F7F2FF" font-size="34" font-weight="700" font-family="Inter, Helvetica, Arial">Cosmic Black</text><text x="570" y="1481" fill="#F7F2FF" font-size="30" font-family="Inter, Helvetica, Arial">#02030A</text><rect x="986" y="1276" width="420" height="250" rx="36" fill="#F7F2FF"/><text x="1018" y="1431" fill="#02030A" font-size="34" font-weight="700" font-family="Inter, Helvetica, Arial">Photon White</text><text x="1018" y="1481" fill="#02030A" font-size="30" font-family="Inter, Helvetica, Arial">#F7F2FF</text>
</svg>